<?xml version="1.0" encoding="iso-8859-1"?>
<!-- Generator: Adobe Illustrator 22.1.0, SVG Export Plug-In . SVG Version: 6.00 Build 0)  -->
<svg version="1.1" id="&#xB808;&#xC774;&#xC5B4;_1" xmlns="http://www.w3.org/2000/svg" xmlns:xlink="http://www.w3.org/1999/xlink"
	 x="0px" y="0px" viewBox="0 0 346 346" style="enable-background:new 0 0 346 346;" xml:space="preserve">
<linearGradient id="SVGID_1_" gradientUnits="userSpaceOnUse" x1="-305.0981" y1="240.1768" x2="-294.8481" y2="237.2602">
	<stop  offset="5.154996e-08" style="stop-color:#032769"/>
	<stop  offset="0.0267" style="stop-color:#032D70"/>
	<stop  offset="0.1658" style="stop-color:#024691"/>
	<stop  offset="0.299" style="stop-color:#0158A9"/>
	<stop  offset="0.4228" style="stop-color:#0063B7"/>
	<stop  offset="0.5279" style="stop-color:#0067BC"/>
</linearGradient>
<path style="fill:url(#SVGID_1_);" d="M-313.673,243.305l6.294,6.544l4.175-4.176c0.457-0.456,0.873-0.924,1.247-1.401
	s0.748-0.967,1.122-1.465l0.998-13.15L-313.673,243.305z"/>
<g>
	<path d="M-273.756,99.676h-1.685v-1.062h1.685v-2.546h1.245v2.546h2.729v1.062h-2.729v6.007c0,0.671,0.107,1.142,0.321,1.41
		c0.213,0.269,0.57,0.403,1.071,0.403c0.488,0,0.952-0.061,1.392-0.183l0.183,1.025c-0.196,0.073-0.455,0.131-0.778,0.174
		c-0.324,0.043-0.62,0.064-0.888,0.064c-0.428,0-0.803-0.049-1.126-0.146c-0.324-0.098-0.589-0.256-0.797-0.477
		c-0.208-0.22-0.363-0.509-0.467-0.87c-0.104-0.36-0.156-0.809-0.156-1.346V99.676z"/>
	<path d="M-260.112,107.514c-0.391,0.281-0.879,0.537-1.465,0.77c-0.586,0.231-1.294,0.348-2.125,0.348
		c-1.319,0-2.344-0.394-3.077-1.181c-0.732-0.788-1.099-1.901-1.099-3.342v-1.227c0-1.404,0.357-2.497,1.071-3.278
		s1.694-1.172,2.939-1.172c1.294,0,2.28,0.4,2.958,1.2c0.677,0.8,1.016,1.896,1.016,3.288v1.025h-6.74v0.165
		c0,1.099,0.263,1.944,0.788,2.537s1.246,0.888,2.161,0.888c0.659,0,1.239-0.098,1.74-0.293s0.928-0.421,1.282-0.678
		L-260.112,107.514z M-261.138,102.899v-0.165c0-1.038-0.238-1.832-0.714-2.381s-1.148-0.824-2.015-0.824
		c-0.879,0-1.56,0.29-2.042,0.87c-0.482,0.58-0.724,1.358-0.724,2.335v0.165H-261.138z"/>
	<path d="M-254.764,108.631c-0.94,0-1.703-0.25-2.29-0.751c-0.586-0.5-0.879-1.19-0.879-2.069v-0.403
		c0-0.806,0.293-1.459,0.879-1.959c0.586-0.5,1.453-0.751,2.601-0.751h2.784v-0.916c0-0.72-0.199-1.272-0.595-1.657
		c-0.397-0.385-0.98-0.577-1.749-0.577c-0.538,0-1.05,0.095-1.539,0.284s-0.946,0.43-1.374,0.723l-0.604-0.952
		c0.464-0.317,0.98-0.592,1.547-0.824c0.568-0.232,1.23-0.348,1.987-0.348c1.111,0,1.981,0.275,2.61,0.824
		c0.629,0.55,0.943,1.325,0.943,2.326v6.904h-1.209v-1.208h-0.018c-0.098,0.159-0.241,0.32-0.431,0.485
		c-0.189,0.165-0.412,0.314-0.668,0.449C-253.33,108.491-253.995,108.631-254.764,108.631z M-251.669,103.742h-2.766
		c-0.794,0-1.368,0.159-1.722,0.476s-0.531,0.732-0.531,1.245v0.293c0,0.317,0.061,0.589,0.184,0.815
		c0.122,0.226,0.284,0.412,0.485,0.559c0.202,0.146,0.427,0.253,0.678,0.32c0.25,0.067,0.504,0.101,0.76,0.101
		c0.391,0,0.745-0.048,1.062-0.146c0.317-0.098,0.623-0.238,0.916-0.421c0.268-0.171,0.491-0.382,0.668-0.632
		c0.177-0.25,0.266-0.565,0.266-0.943V103.742z"/>
	<path d="M-237.696,98.43c1.124,0,1.944,0.306,2.463,0.916s0.778,1.441,0.778,2.491v6.648h-1.245v-6.318
		c0-0.403-0.034-0.763-0.101-1.081c-0.067-0.317-0.183-0.589-0.348-0.815c-0.165-0.226-0.391-0.4-0.678-0.522
		c-0.287-0.122-0.65-0.183-1.09-0.183c-0.403,0-0.757,0.073-1.062,0.22c-0.306,0.146-0.565,0.336-0.778,0.568
		c-0.214,0.232-0.379,0.494-0.495,0.788c-0.116,0.293-0.18,0.58-0.192,0.86v6.483h-1.245v-6.318c0-0.403-0.034-0.763-0.101-1.081
		c-0.067-0.317-0.183-0.589-0.348-0.815c-0.165-0.226-0.391-0.4-0.678-0.522c-0.287-0.122-0.65-0.183-1.09-0.183
		c-0.403,0-0.763,0.076-1.081,0.229s-0.583,0.351-0.796,0.595c-0.214,0.244-0.375,0.513-0.485,0.806s-0.165,0.586-0.165,0.879v6.41
		h-1.245v-9.871h1.227v1.374c0.11-0.195,0.247-0.388,0.412-0.577c0.165-0.189,0.363-0.357,0.595-0.503
		c0.231-0.146,0.491-0.263,0.778-0.348c0.287-0.085,0.613-0.128,0.979-0.128c0.793,0,1.435,0.156,1.923,0.467
		c0.488,0.312,0.842,0.754,1.062,1.328c0.11-0.208,0.253-0.418,0.431-0.632c0.177-0.213,0.39-0.406,0.641-0.577
		c0.25-0.171,0.537-0.312,0.861-0.421C-238.444,98.485-238.086,98.43-237.696,98.43z"/>
</g>
<g>
	<path d="M-226.984,83.9h9.923c5.363,0,8.045,2.079,8.045,6.237v0.744c0,0.567-0.065,1.117-0.195,1.648
		c-0.13,0.532-0.354,1.028-0.673,1.489c-0.319,0.46-0.738,0.863-1.258,1.205c-0.521,0.343-1.158,0.609-1.914,0.798
		c1.56,0.236,2.817,0.821,3.774,1.754c0.957,0.934,1.436,2.286,1.436,4.058v0.886c0,2.103-0.662,3.751-1.985,4.944
		s-3.366,1.79-6.131,1.79h-11.021V83.9z M-222.483,87.657v6.663h3.331c0.874,0,1.659-0.023,2.356-0.071
		c0.697-0.047,1.276-0.177,1.736-0.39c0.461-0.212,0.815-0.537,1.063-0.975c0.248-0.437,0.372-1.057,0.372-1.86v-0.638
		c0-1.086-0.42-1.813-1.258-2.18c-0.839-0.366-2.215-0.549-4.129-0.549H-222.483z M-222.483,105.696h4.11
		c0.992,0,1.861-0.041,2.605-0.124c0.744-0.083,1.358-0.248,1.843-0.496c0.483-0.248,0.845-0.596,1.081-1.045
		c0.235-0.449,0.354-1.051,0.354-1.808v-0.779c0-0.661-0.113-1.211-0.337-1.648c-0.225-0.437-0.597-0.792-1.116-1.063
		c-0.521-0.271-1.2-0.46-2.038-0.567c-0.839-0.106-1.86-0.16-3.065-0.16h-3.438V105.696z"/>
	<path d="M-197.995,109.453V89.003l-5.812,3.332l-2.197-3.686l8.541-4.749h4.005v25.552H-197.995z"/>
	<path d="M-188.674,83.9h5.209l8.719,15.487c0.26,0.473,0.549,1.058,0.868,1.754s0.572,1.459,0.762,2.286V83.9h4.253v25.552h-5.21
		l-8.753-15.523c-0.332-0.567-0.639-1.181-0.922-1.843c-0.283-0.661-0.509-1.358-0.674-2.091v19.457h-4.252V83.9z"/>
	<path d="M-157.77,83.9c3.804,0,6.604,0.939,8.399,2.817c1.795,1.878,2.693,4.589,2.693,8.133v3.65c0,1.772-0.201,3.337-0.603,4.696
		c-0.402,1.359-1.046,2.499-1.932,3.42c-0.886,0.921-2.026,1.625-3.42,2.108c-1.395,0.484-3.084,0.727-5.068,0.727h-8.966V83.9
		H-157.77z M-162.164,105.625h3.792c1.134,0,2.144-0.129,3.03-0.39c0.886-0.26,1.63-0.673,2.232-1.24
		c0.603-0.567,1.063-1.317,1.382-2.25c0.319-0.933,0.479-2.073,0.479-3.42v-3.296c0-2.693-0.597-4.583-1.79-5.67
		c-1.193-1.086-2.971-1.63-5.333-1.63h-3.792V105.625z"/>
</g>
<g>
	<path style="fill:#0067BC;" d="M-293.427,126.338h15.007c6.07,0,10.463,0.962,13.179,2.886c2.714,1.924,4.072,4.768,4.072,8.53
		c0,2.822-0.695,5.088-2.084,6.798c-1.39,1.71-2.94,2.801-4.649,3.271v0.321c1.368,0.385,2.629,0.984,3.784,1.796
		c1.154,0.813,2.073,1.924,2.758,3.334c0.684,1.411,1.026,3.229,1.026,5.451c0,4.148-1.475,7.418-4.425,9.813
		c-2.95,2.395-6.948,3.591-11.993,3.591h-16.674V126.338z M-281.563,143.975h3.207c1.796,0,3.1-0.417,3.912-1.25
		c0.812-0.834,1.219-1.913,1.219-3.239c0-2.65-1.775-3.976-5.323-3.976h-3.014V143.975z M-281.563,152.889v9.876h3.784
		c1.881,0,3.228-0.449,4.041-1.347c0.812-0.898,1.219-2.116,1.219-3.656c0-1.368-0.407-2.522-1.219-3.463
		c-0.813-0.94-2.224-1.411-4.233-1.411H-281.563z"/>
</g>
<rect x="-340.25" y="72.25" style="fill:#0067BC;" width="10" height="5.25"/>
<g>
	<g>
		<path style="fill:#0067BC;" d="M-329.261,125.997h15.007c6.07,0,10.463,0.962,13.179,2.886c2.714,1.924,4.072,4.768,4.072,8.529
			c0,2.822-0.695,5.089-2.084,6.798c-1.39,1.711-2.94,2.801-4.649,3.271v0.32c1.368,0.385,2.629,0.984,3.784,1.796
			c1.154,0.813,2.073,1.924,2.758,3.335c0.684,1.41,1.026,3.229,1.026,5.451c0,4.147-1.475,7.418-4.425,9.812
			c-2.95,2.396-6.948,3.592-11.993,3.592h-16.674V125.997z M-317.396,143.633h3.207c1.796,0,3.1-0.416,3.912-1.25
			c0.812-0.834,1.219-1.913,1.219-3.239c0-2.65-1.775-3.976-5.323-3.976h-3.014V143.633z M-317.396,152.548v9.876h3.784
			c1.881,0,3.228-0.449,4.041-1.347c0.812-0.897,1.219-2.116,1.219-3.655c0-1.368-0.407-2.522-1.219-3.464
			c-0.813-0.939-2.224-1.41-4.233-1.41H-317.396z"/>
	</g>
</g>
<path style="fill:none;" d="M-239.028,143.814c0.812-0.834,1.219-1.913,1.219-3.239c0-2.65-1.775-3.976-5.323-3.976h-3.014v8.465
	h3.207C-241.144,145.065-239.84,144.648-239.028,143.814z"/>
<path style="fill:none;" d="M-246.146,163.855h3.784c1.881,0,3.228-0.449,4.041-1.347c0.812-0.898,1.219-2.116,1.219-3.656
	c0-1.368-0.407-2.522-1.219-3.463c-0.813-0.94-2.224-1.411-4.233-1.411h-3.591v1.958V163.855z"/>
<linearGradient id="SVGID_2_" gradientUnits="userSpaceOnUse" x1="-252.1927" y1="124.9679" x2="-224.3177" y2="149.8429">
	<stop  offset="5.154996e-08" style="stop-color:#032769"/>
	<stop  offset="0.0267" style="stop-color:#032D70"/>
	<stop  offset="0.1658" style="stop-color:#024691"/>
	<stop  offset="0.299" style="stop-color:#0158A9"/>
	<stop  offset="0.4228" style="stop-color:#0063B7"/>
	<stop  offset="0.5279" style="stop-color:#0067BC"/>
</linearGradient>
<path style="fill:url(#SVGID_2_);" d="M-243.132,136.6c3.548,0,5.323,1.326,5.323,3.976c0,1.326-0.407,2.405-1.219,3.239
	c-0.813,0.833-2.116,1.25-3.912,1.25h-3.207l13.66,4.168v-0.321c1.709-0.47,3.26-1.56,4.649-3.271
	c1.389-1.709,2.084-3.976,2.084-6.798c0-3.762-1.358-6.606-4.072-8.53c-2.716-1.924-7.109-2.886-13.179-2.886h-3.143v9.171H-243.132
	z"/>
<linearGradient id="SVGID_3_" gradientUnits="userSpaceOnUse" x1="-254.9346" y1="170.3295" x2="-221.6012" y2="145.1628">
	<stop  offset="5.154996e-08" style="stop-color:#032769"/>
	<stop  offset="0.0267" style="stop-color:#032D70"/>
	<stop  offset="0.1658" style="stop-color:#024691"/>
	<stop  offset="0.299" style="stop-color:#0158A9"/>
	<stop  offset="0.4228" style="stop-color:#0063B7"/>
	<stop  offset="0.5279" style="stop-color:#0067BC"/>
</linearGradient>
<path style="fill:url(#SVGID_3_);" d="M-225.945,154.364c-0.685-1.411-1.604-2.522-2.758-3.334
	c-1.154-0.812-2.416-1.411-3.784-1.796l-13.66-4.168v8.914h3.591c2.009,0,3.42,0.471,4.233,1.411
	c0.812,0.941,1.219,2.095,1.219,3.463c0,1.54-0.407,2.758-1.219,3.656c-0.813,0.898-2.16,1.347-4.041,1.347h-3.784v9.363h4.81
	c5.044,0,9.042-1.196,11.993-3.591c2.95-2.394,4.425-5.665,4.425-9.813C-224.918,157.593-225.261,155.775-225.945,154.364z"/>
<polygon style="fill:#0067BC;" points="-246.146,155.938 -246.146,153.979 -246.146,145.065 -246.146,136.6 -246.146,127.429 
	-258.011,127.429 -258.011,173.219 -246.146,173.219 -246.146,163.855 "/>
<path style="fill:none;" d="M-160.278,143.814c0.812-0.834,1.219-1.913,1.219-3.239c0-2.65-1.775-3.976-5.323-3.976h-3.014v8.465
	h3.207C-162.394,145.065-161.09,144.648-160.278,143.814z"/>
<path style="fill:none;" d="M-167.396,163.855h3.784c1.881,0,3.228-0.449,4.041-1.347c0.812-0.898,1.219-2.116,1.219-3.656
	c0-1.368-0.407-2.522-1.219-3.463c-0.813-0.94-2.224-1.411-4.233-1.411h-3.591v1.958V163.855z"/>
<path style="fill:#0067BC;" d="M-164.382,136.6c3.548,0,5.323,1.326,5.323,3.976c0,1.326-0.407,2.405-1.219,3.239
	c-0.813,0.833-2.116,1.25-3.912,1.25h-3.207l13.66,4.168v-0.321c1.709-0.47,3.26-1.56,4.649-3.271
	c1.389-1.709,2.084-3.976,2.084-6.798c0-3.762-1.358-6.606-4.072-8.53c-2.716-1.924-7.109-2.886-13.179-2.886h-3.143v9.171H-164.382
	z"/>
<linearGradient id="SVGID_4_" gradientUnits="userSpaceOnUse" x1="-168.368" y1="174.7313" x2="-152.743" y2="147.1688">
	<stop  offset="5.154996e-08" style="stop-color:#032769"/>
	<stop  offset="0.0267" style="stop-color:#032D70"/>
	<stop  offset="0.1658" style="stop-color:#024691"/>
	<stop  offset="0.299" style="stop-color:#0158A9"/>
	<stop  offset="0.4228" style="stop-color:#0063B7"/>
	<stop  offset="0.5279" style="stop-color:#0067BC"/>
</linearGradient>
<path style="fill:url(#SVGID_4_);" d="M-147.195,154.364c-0.685-1.411-1.604-2.522-2.758-3.334
	c-1.154-0.812-2.416-1.411-3.784-1.796l-13.66-4.168v8.914h3.591c2.009,0,3.42,0.471,4.233,1.411
	c0.812,0.941,1.219,2.095,1.219,3.463c0,1.54-0.407,2.758-1.219,3.656c-0.813,0.898-2.16,1.347-4.041,1.347h-3.784v9.363h4.81
	c5.044,0,9.042-1.196,11.993-3.591c2.95-2.394,4.425-5.665,4.425-9.813C-146.168,157.593-146.511,155.775-147.195,154.364z"/>
<linearGradient id="SVGID_5_" gradientUnits="userSpaceOnUse" x1="-165.2598" y1="121.3388" x2="-178.1348" y2="167.5888">
	<stop  offset="5.154996e-08" style="stop-color:#032769"/>
	<stop  offset="0.0267" style="stop-color:#032D70"/>
	<stop  offset="0.1658" style="stop-color:#024691"/>
	<stop  offset="0.299" style="stop-color:#0158A9"/>
	<stop  offset="0.4228" style="stop-color:#0063B7"/>
	<stop  offset="0.5279" style="stop-color:#0067BC"/>
</linearGradient>
<polygon style="fill:url(#SVGID_5_);" points="-167.396,155.938 -167.396,153.979 -167.396,145.065 -167.396,136.6 
	-167.396,127.429 -179.261,127.429 -179.261,173.219 -167.396,173.219 -167.396,163.855 "/>
<path style="fill:none;" d="M-200.361,143.814c0.812-0.834,1.219-1.913,1.219-3.239c0-2.65-1.775-3.976-5.323-3.976h-3.014v8.465
	h3.207C-202.477,145.065-201.174,144.648-200.361,143.814z"/>
<path style="fill:none;" d="M-207.48,163.855h3.784c1.881,0,3.228-0.449,4.041-1.347c0.812-0.898,1.219-2.116,1.219-3.656
	c0-1.368-0.407-2.522-1.219-3.463c-0.813-0.94-2.224-1.411-4.233-1.411h-3.591v1.958V163.855z"/>
<linearGradient id="SVGID_6_" gradientUnits="userSpaceOnUse" x1="-201.9805" y1="152.4756" x2="-195.4805" y2="126.9756">
	<stop  offset="5.154996e-08" style="stop-color:#032769"/>
	<stop  offset="0.0267" style="stop-color:#032D70"/>
	<stop  offset="0.1658" style="stop-color:#024691"/>
	<stop  offset="0.299" style="stop-color:#0158A9"/>
	<stop  offset="0.4228" style="stop-color:#0063B7"/>
	<stop  offset="0.5279" style="stop-color:#0067BC"/>
</linearGradient>
<path style="fill:url(#SVGID_6_);" d="M-204.466,136.6c3.548,0,5.323,1.326,5.323,3.976c0,1.326-0.407,2.405-1.219,3.239
	c-0.813,0.833-2.116,1.25-3.912,1.25h-3.207l13.66,4.168v-0.321c1.709-0.47,3.26-1.56,4.649-3.271
	c1.389-1.709,2.084-3.976,2.084-6.798c0-3.762-1.358-6.606-4.072-8.53c-2.716-1.924-7.109-2.886-13.179-2.886h-3.143v9.171H-204.466
	z"/>
<path style="fill:#0067BC;" d="M-187.278,154.364c-0.685-1.411-1.604-2.522-2.758-3.334c-1.154-0.812-2.416-1.411-3.784-1.796
	l-13.66-4.168v8.914h3.591c2.009,0,3.42,0.471,4.233,1.411c0.812,0.941,1.219,2.095,1.219,3.463c0,1.54-0.407,2.758-1.219,3.656
	c-0.813,0.898-2.16,1.347-4.041,1.347h-3.784v9.363h4.81c5.044,0,9.042-1.196,11.993-3.591c2.95-2.394,4.425-5.665,4.425-9.813
	C-186.252,157.593-186.595,155.775-187.278,154.364z"/>
<linearGradient id="SVGID_7_" gradientUnits="userSpaceOnUse" x1="-203.1566" y1="180.3887" x2="-217.7816" y2="137.5137">
	<stop  offset="5.154996e-08" style="stop-color:#032769"/>
	<stop  offset="0.0267" style="stop-color:#032D70"/>
	<stop  offset="0.1658" style="stop-color:#024691"/>
	<stop  offset="0.299" style="stop-color:#0158A9"/>
	<stop  offset="0.4228" style="stop-color:#0063B7"/>
	<stop  offset="0.5279" style="stop-color:#0067BC"/>
</linearGradient>
<polygon style="fill:url(#SVGID_7_);" points="-207.48,155.938 -207.48,153.979 -207.48,145.065 -207.48,136.6 -207.48,127.429 
	-219.344,127.429 -219.344,173.219 -207.48,173.219 -207.48,163.855 "/>
<rect x="-167.396" y="143.875" style="fill:#FFFFFF;" width="0.553" height="11.625"/>
<path style="fill:#0067BC;" d="M-332.505,229.657h13.71c5.401,0,9.379,0.915,11.935,2.742c2.555,1.829,3.833,4.612,3.833,8.352
	c0,2.617-0.603,4.778-1.808,6.481c-1.206,1.704-2.659,2.805-4.362,3.303v0.312c2.16,0.665,3.853,1.808,5.079,3.428
	c1.225,1.621,1.838,3.906,1.838,6.855c0,4.03-1.351,7.209-4.051,9.535c-2.701,2.327-6.378,3.49-11.031,3.49h-15.144V229.657z
	 M-321.474,246.92h2.742c1.496,0,2.618-0.395,3.365-1.185c0.748-0.788,1.122-1.89,1.122-3.303c0-2.7-1.58-4.051-4.737-4.051h-2.493
	V246.92z M-321.474,255.333v9.909h3.178c1.662,0,2.867-0.437,3.615-1.309s1.122-2.119,1.122-3.739c0-1.454-0.396-2.627-1.185-3.521
	c-0.79-0.893-2.016-1.34-3.677-1.34H-321.474z"/>
<linearGradient id="SVGID_8_" gradientUnits="userSpaceOnUse" x1="-326.1244" y1="252.1101" x2="-236.1244" y2="251.7767">
	<stop  offset="5.154996e-08" style="stop-color:#032769"/>
	<stop  offset="0.0267" style="stop-color:#032D70"/>
	<stop  offset="0.1658" style="stop-color:#024691"/>
	<stop  offset="0.299" style="stop-color:#0158A9"/>
	<stop  offset="0.4228" style="stop-color:#0063B7"/>
	<stop  offset="0.5279" style="stop-color:#0067BC"/>
</linearGradient>
<path style="fill:url(#SVGID_8_);" d="M-252.845,274.155h-13.398l-12.963-28.793h-0.25c0.125,1.745,0.239,3.678,0.343,5.796
	c0.104,2.119,0.156,3.948,0.156,5.484v17.513h-10.096v-44.498h13.337l12.9,28.107h0.25c-0.084-1.536-0.178-3.323-0.281-5.359
	c-0.104-2.035-0.156-3.843-0.156-5.422v-17.326h10.158V274.155z"/>
<linearGradient id="SVGID_9_" gradientUnits="userSpaceOnUse" x1="-325.3938" y1="252.2037" x2="-235.3938" y2="251.8704">
	<stop  offset="5.154996e-08" style="stop-color:#032769"/>
	<stop  offset="0.0267" style="stop-color:#032D70"/>
	<stop  offset="0.1658" style="stop-color:#024691"/>
	<stop  offset="0.299" style="stop-color:#0158A9"/>
	<stop  offset="0.4228" style="stop-color:#0063B7"/>
	<stop  offset="0.5279" style="stop-color:#0067BC"/>
</linearGradient>
<path style="fill:url(#SVGID_9_);" d="M-218.48,250.971c0,7.521-1.798,13.265-5.392,17.231c-3.594,3.969-8.569,5.952-14.926,5.952
	h-12.34v-44.498h13.213c6.231,0,11.03,1.829,14.396,5.484C-220.163,238.798-218.48,244.075-218.48,250.971z M-229.886,251.408
	c0-4.403-0.676-7.572-2.025-9.504c-1.351-1.933-3.396-2.898-6.139-2.898h-2.057v25.739h1.371c3.032,0,5.267-1.091,6.699-3.272
	C-230.603,259.291-229.886,255.936-229.886,251.408z"/>
<path style="fill:#0067BC;" d="M-299.838,229.657l-0.998,13.15c-0.042,1.288-0.083,2.701-0.125,4.237
	c-0.042,1.538-0.062,2.909-0.062,4.113v22.997h10.968v-44.498H-299.838z"/>
<linearGradient id="SVGID_10_" gradientUnits="userSpaceOnUse" x1="-305.6956" y1="300.2096" x2="-295.6956" y2="295.6263">
	<stop  offset="5.154996e-08" style="stop-color:#032769"/>
	<stop  offset="0.0267" style="stop-color:#032D70"/>
	<stop  offset="0.1658" style="stop-color:#024691"/>
	<stop  offset="0.299" style="stop-color:#0158A9"/>
	<stop  offset="0.4228" style="stop-color:#0063B7"/>
	<stop  offset="0.5279" style="stop-color:#0067BC"/>
</linearGradient>
<path style="fill:url(#SVGID_10_);" d="M-313.673,302.805l6.294,6.544l4.175-4.176c0.457-0.456,0.873-0.924,1.247-1.401
	s0.748-0.967,1.122-1.465l0.998-13.15L-313.673,302.805z"/>
<linearGradient id="SVGID_11_" gradientUnits="userSpaceOnUse" x1="-334.9315" y1="305.319" x2="-304.2648" y2="320.1523">
	<stop  offset="5.154996e-08" style="stop-color:#032769"/>
	<stop  offset="0.0267" style="stop-color:#032D70"/>
	<stop  offset="0.1658" style="stop-color:#024691"/>
	<stop  offset="0.299" style="stop-color:#0158A9"/>
	<stop  offset="0.4228" style="stop-color:#0063B7"/>
	<stop  offset="0.5279" style="stop-color:#0067BC"/>
</linearGradient>
<path style="fill:url(#SVGID_11_);" d="M-332.505,289.157h13.71c5.401,0,9.379,0.915,11.935,2.742
	c2.555,1.829,3.833,4.612,3.833,8.352c0,2.617-0.603,4.778-1.808,6.481c-1.206,1.704-2.659,2.805-4.362,3.303v0.312
	c2.16,0.665,3.853,1.808,5.079,3.428c1.225,1.621,1.838,3.906,1.838,6.855c0,4.03-1.351,7.209-4.051,9.535
	c-2.701,2.327-6.378,3.49-11.031,3.49h-15.144V289.157z M-321.474,306.42h2.742c1.496,0,2.618-0.395,3.365-1.185
	c0.748-0.788,1.122-1.89,1.122-3.303c0-2.7-1.58-4.051-4.737-4.051h-2.493V306.42z M-321.474,314.833v9.909h3.178
	c1.662,0,2.867-0.437,3.615-1.309s1.122-2.119,1.122-3.739c0-1.454-0.396-2.627-1.185-3.521c-0.79-0.893-2.016-1.34-3.677-1.34
	H-321.474z"/>
<linearGradient id="SVGID_12_" gradientUnits="userSpaceOnUse" x1="-283.8343" y1="310.925" x2="-261.5009" y2="311.7583">
	<stop  offset="5.154996e-08" style="stop-color:#032769"/>
	<stop  offset="0.0267" style="stop-color:#032D70"/>
	<stop  offset="0.1658" style="stop-color:#024691"/>
	<stop  offset="0.299" style="stop-color:#0158A9"/>
	<stop  offset="0.4228" style="stop-color:#0063B7"/>
	<stop  offset="0.5279" style="stop-color:#0067BC"/>
</linearGradient>
<path style="fill:url(#SVGID_12_);" d="M-252.845,333.655h-13.398l-12.963-28.793h-0.25c0.125,1.745,0.239,3.678,0.343,5.796
	c0.104,2.119,0.156,3.948,0.156,5.484v17.513h-10.096v-44.498h13.337l12.9,28.107h0.25c-0.084-1.536-0.178-3.323-0.281-5.359
	c-0.104-2.035-0.156-3.843-0.156-5.422v-17.326h10.158V333.655z"/>
<linearGradient id="SVGID_13_" gradientUnits="userSpaceOnUse" x1="-250.9599" y1="306.0809" x2="-229.7933" y2="317.9143">
	<stop  offset="5.154996e-08" style="stop-color:#032769"/>
	<stop  offset="0.0267" style="stop-color:#032D70"/>
	<stop  offset="0.1658" style="stop-color:#024691"/>
	<stop  offset="0.299" style="stop-color:#0158A9"/>
	<stop  offset="0.4228" style="stop-color:#0063B7"/>
	<stop  offset="0.5279" style="stop-color:#0067BC"/>
</linearGradient>
<path style="fill:url(#SVGID_13_);" d="M-218.48,310.471c0,7.521-1.798,13.265-5.392,17.231c-3.594,3.969-8.569,5.952-14.926,5.952
	h-12.34v-44.498h13.213c6.231,0,11.03,1.829,14.396,5.484C-220.163,298.298-218.48,303.575-218.48,310.471z M-229.886,310.908
	c0-4.403-0.676-7.572-2.025-9.504c-1.351-1.933-3.396-2.898-6.139-2.898h-2.057v25.739h1.371c3.032,0,5.267-1.091,6.699-3.272
	C-230.603,318.791-229.886,315.436-229.886,310.908z"/>
<path style="fill:#0067BC;" d="M-299.838,289.157l-0.998,13.15c-0.042,1.288-0.083,2.701-0.125,4.237
	c-0.042,1.538-0.062,2.909-0.062,4.113v22.997h10.968v-44.498H-299.838z"/>
<rect x="-289.053" y="289.157" style="fill:#0067BC;" width="10.158" height="44.498"/>
<rect x="-251.138" y="289.157" style="fill:#0067BC;" width="11.031" height="44.498"/>
<rect x="-332.505" y="289.157" style="fill:#0067BC;" width="11.031" height="44.498"/>
<linearGradient id="SVGID_14_" gradientUnits="userSpaceOnUse" x1="-144.1673" y1="144.421" x2="-114.3416" y2="158.8476">
	<stop  offset="5.154996e-08" style="stop-color:#032769"/>
	<stop  offset="0.0267" style="stop-color:#032D70"/>
	<stop  offset="0.1658" style="stop-color:#024691"/>
	<stop  offset="0.299" style="stop-color:#0158A9"/>
	<stop  offset="0.4228" style="stop-color:#0063B7"/>
	<stop  offset="0.5279" style="stop-color:#0067BC"/>
</linearGradient>
<path style="fill:url(#SVGID_14_);" d="M-141.807,128.702h13.334c5.253,0,9.122,0.89,11.607,2.667
	c2.485,1.779,3.728,4.486,3.728,8.123c0,2.545-0.586,4.647-1.758,6.304c-1.173,1.657-2.586,2.728-4.243,3.212v0.303
	c2.1,0.647,3.747,1.758,4.94,3.334c1.191,1.577,1.788,3.799,1.788,6.667c0,3.92-1.314,7.011-3.94,9.274
	c-2.627,2.263-6.203,3.395-10.728,3.395h-14.729V128.702z M-131.079,145.492h2.667c1.455,0,2.546-0.384,3.273-1.152
	c0.728-0.766,1.091-1.838,1.091-3.212c0-2.626-1.536-3.94-4.607-3.94h-2.424V145.492z M-131.079,153.675v9.637h3.091
	c1.616,0,2.788-0.425,3.516-1.273c0.728-0.848,1.091-2.061,1.091-3.637c0-1.414-0.385-2.555-1.152-3.425
	c-0.768-0.868-1.96-1.303-3.576-1.303H-131.079z"/>
<rect x="-141.807" y="128.702" style="fill:#0067BC;" width="10.728" height="43.278"/>
<g>
	<rect x="-278.895" y="288.313" style="fill:#FFFFFF;" width="1.208" height="23.093"/>
</g>
<g>
	<rect x="-240.106" y="288.313" style="fill:#FFFFFF;" width="1.208" height="23.093"/>
</g>
<g>
	<path d="M-133.609,111.432h-3.739v-8.42c0-0.507,0.003-1,0.011-1.478s0.019-0.926,0.034-1.344
		c-0.105,0.149-0.217,0.311-0.336,0.481c-0.12,0.172-0.262,0.348-0.426,0.526l-1.389,1.5l-2.262-2.172l4.747-5.083h3.359V111.432z"
		/>
	<path d="M-118.114,111.432h-4.434l-4.165-9.942h-0.09c0.075,0.881,0.123,1.661,0.146,2.34c0.022,0.68,0.034,1.251,0.034,1.713v5.89
		h-3.538V95.443h4.411l4.143,9.674h0.09c-0.045-0.807-0.082-1.534-0.112-2.184s-0.045-1.213-0.045-1.69v-5.8h3.561V111.432z"/>
	<path d="M-104.521,103.102c0,2.657-0.598,4.71-1.792,6.158s-2.874,2.172-5.038,2.172h-4.12V95.443h4.389
		c2.09,0,3.706,0.657,4.848,1.971C-105.093,98.728-104.521,100.624-104.521,103.102z M-108.463,103.259
		c0-1.627-0.224-2.788-0.672-3.482s-1.119-1.041-2.016-1.041h-0.515v9.382h0.291c1.015,0,1.754-0.392,2.217-1.175
		C-108.694,106.158-108.463,104.931-108.463,103.259z"/>
</g>
<g>
	<g>
		<path d="M172.776,246.501v-29.743h4.784v10.652h11.793v-10.652h4.784v29.743H172.776z M177.559,242.309h11.793v-10.705h-11.793
			V242.309z M213.031,233.628h-7.005v24.863h-4.885v-45.487h4.885v16.38h7.005V233.628z"/>
		<path d="M217.222,225.241c0-1.118,0.231-2.293,0.689-3.526c0.462-1.233,1.171-2.361,2.125-3.382
			c0.954-1.016,2.134-1.855,3.551-2.515c1.412-0.655,3.093-0.988,5.029-0.988c1.908,0,3.579,0.332,5.01,0.988
			c1.431,0.66,2.621,1.498,3.575,2.515c0.954,1.021,1.662,2.149,2.125,3.382c0.458,1.233,0.689,2.409,0.689,3.526v2.563
			c0,1.118-0.231,2.293-0.689,3.526c-0.462,1.233-1.171,2.361-2.125,3.382c-0.954,1.021-2.144,1.86-3.575,2.515
			c-1.431,0.66-3.102,0.988-5.01,0.988c-1.937,0-3.618-0.328-5.029-0.988c-1.416-0.655-2.597-1.493-3.551-2.515
			c-0.954-1.021-1.662-2.149-2.125-3.382c-0.458-1.233-0.689-2.409-0.689-3.526V225.241z M235.326,225.438
			c0-0.756-0.13-1.513-0.395-2.269c-0.265-0.756-0.665-1.44-1.209-2.047c-0.54-0.607-1.233-1.103-2.072-1.479
			c-0.838-0.381-1.85-0.568-3.035-0.568c-1.18,0-2.202,0.188-3.054,0.568c-0.858,0.376-1.556,0.872-2.1,1.479
			c-0.54,0.607-0.935,1.291-1.18,2.047c-0.251,0.756-0.371,1.513-0.371,2.269v2.168c0,0.756,0.13,1.513,0.395,2.269
			c0.26,0.761,0.665,1.44,1.209,2.047c0.54,0.612,1.233,1.103,2.072,1.484c0.838,0.376,1.85,0.564,3.03,0.564
			c1.185,0,2.197-0.188,3.035-0.564c0.838-0.381,1.532-0.872,2.072-1.484c0.544-0.607,0.944-1.286,1.209-2.047
			c0.265-0.756,0.395-1.513,0.395-2.269V225.438z M229.458,253.756h24.468v4.239h-29.353v-15.093h4.885V253.756z M248.155,245.465
			v-32.46h4.832v32.46H248.155z"/>
		<path d="M301.928,248.278v4.143h-41.734v-4.143H301.928z M296.6,238.658h-30.784v-21.756h30.24v4.196h-25.355v13.369H296.6
			V238.658z"/>
	</g>
	<path style="fill:none;" d="M97.064,241.561c6.197,0,10.692-1.628,13.481-4.88c2.79-3.252,4.185-7.903,4.185-13.946
		c0-5.423-1.475-9.797-4.418-13.133c-2.945-3.329-7.517-4.997-13.712-4.997H85.211v36.956H97.064z"/>
	<linearGradient id="SVGID_15_" gradientUnits="userSpaceOnUse" x1="38.9215" y1="161.057" x2="153.2933" y2="216.3781">
		<stop  offset="5.154996e-08" style="stop-color:#032769"/>
		<stop  offset="0.0267" style="stop-color:#032D70"/>
		<stop  offset="0.1658" style="stop-color:#024691"/>
		<stop  offset="0.299" style="stop-color:#0158A9"/>
		<stop  offset="0.4228" style="stop-color:#0063B7"/>
		<stop  offset="0.5279" style="stop-color:#0067BC"/>
	</linearGradient>
	<path style="fill:url(#SVGID_15_);" d="M149.942,200.653c-4.573-6.042-10.888-10.303-18.942-12.784v-1.162
		c6.352-1.857,11.773-5.962,16.269-12.317c4.493-6.352,6.742-14.412,6.742-24.173c0-13.946-4.766-24.326-14.295-31.147
		c-9.53-6.814-24.368-10.227-44.51-10.227h-5.296v32.542h4.599c11.775,0,17.666,5.037,17.666,15.107
		c0,5.27-1.395,9.379-4.185,12.318c-2.788,2.947-6.973,4.418-12.551,4.418H85.211v31.377H96.6c6.195,0,10.768,1.668,13.712,4.997
		c2.943,3.336,4.418,7.71,4.418,13.133c0,6.042-1.395,10.693-4.185,13.946c-2.79,3.252-7.284,4.88-13.481,4.88H85.211v33.238h15.34
		c17.353,0,31.065-4.338,41.14-13.017c10.07-8.675,15.107-20.53,15.107-35.561C156.798,215.221,154.511,206.699,149.942,200.653z"/>
	<polygon style="fill:#0067BC;" points="85.211,204.604 85.211,173.227 85.211,150.818 85.211,141.385 85.211,108.843 
		44.072,108.843 44.072,274.799 85.211,274.799 85.211,241.561 	"/>
</g>
<rect x="-321.474" y="288.313" style="fill:#FFFFFF;" width="1.349" height="10.188"/>
<g>
</g>
<g>
</g>
<g>
</g>
<g>
</g>
<g>
</g>
<g>
</g>
<g>
</g>
<g>
</g>
<g>
</g>
<g>
</g>
<g>
</g>
<g>
</g>
<g>
</g>
<g>
</g>
<g>
</g>
</svg>
