<?xml version="1.0" encoding="iso-8859-1"?>
<!-- Generator: Adobe Illustrator 22.1.0, SVG Export Plug-In . SVG Version: 6.00 Build 0)  -->
<svg version="1.1" id="&#xB808;&#xC774;&#xC5B4;_1" xmlns="http://www.w3.org/2000/svg" xmlns:xlink="http://www.w3.org/1999/xlink"
	 x="0px" y="0px" viewBox="0 0 351 351" style="enable-background:new 0 0 351 351;" xml:space="preserve">
<g>
	<path d="M132.969,241.662v-33.861h5.446v12.126h13.426v-12.126h5.446v33.861H132.969z M138.415,236.89h13.426v-12.186h-13.426
		V236.89z M178.796,227.008h-7.974v28.305h-5.561v-51.784h5.561v18.647h7.974V227.008z"/>
	<path d="M183.568,217.459c0-1.272,0.263-2.611,0.784-4.015c0.527-1.404,1.333-2.687,2.419-3.85c1.086-1.157,2.43-2.111,4.042-2.863
		c1.607-0.746,3.521-1.124,5.726-1.124c2.172,0,4.075,0.378,5.704,1.124c1.629,0.751,2.984,1.706,4.069,2.863
		c1.086,1.163,1.892,2.446,2.419,3.85c0.521,1.404,0.784,2.742,0.784,4.015v2.918c0,1.272-0.263,2.611-0.784,4.015
		c-0.526,1.404-1.333,2.687-2.419,3.85c-1.086,1.163-2.441,2.117-4.069,2.863c-1.629,0.751-3.532,1.124-5.704,1.124
		c-2.205,0-4.119-0.373-5.726-1.124c-1.612-0.746-2.956-1.7-4.042-2.863c-1.086-1.163-1.892-2.446-2.419-3.85
		c-0.521-1.404-0.784-2.742-0.784-4.015V217.459z M204.178,217.684c0-0.861-0.148-1.722-0.45-2.583
		c-0.302-0.861-0.757-1.64-1.377-2.331c-0.614-0.691-1.404-1.256-2.358-1.684c-0.954-0.433-2.106-0.647-3.455-0.647
		c-1.344,0-2.506,0.214-3.477,0.647c-0.976,0.428-1.771,0.993-2.391,1.684c-0.614,0.691-1.064,1.47-1.344,2.331
		c-0.285,0.861-0.422,1.722-0.422,2.583v2.468c0,0.861,0.148,1.722,0.45,2.583c0.296,0.867,0.757,1.64,1.377,2.331
		c0.614,0.697,1.404,1.256,2.358,1.689c0.954,0.428,2.106,0.642,3.45,0.642c1.349,0,2.501-0.214,3.455-0.642
		c0.954-0.433,1.744-0.993,2.358-1.689c0.62-0.691,1.075-1.464,1.377-2.331c0.302-0.861,0.45-1.722,0.45-2.583V217.684z
		 M197.498,249.921h27.855v4.826h-33.416v-17.183h5.561V249.921z M218.783,240.483v-36.954h5.501v36.954H218.783z"/>
	<path d="M280,243.686v4.717h-47.511v-4.717H280z M273.934,232.733h-35.045v-24.768h34.426v4.777H244.45v15.219h29.484V232.733z"/>
</g>
<path style="fill:none;" d="M71.304,235.523c5.047,0,8.708-1.326,10.98-3.975c2.272-2.649,3.408-6.437,3.408-11.358
	c0-4.417-1.201-7.98-3.598-10.697c-2.398-2.711-6.122-4.07-11.168-4.07H61.65v30.1H71.304z"/>
<linearGradient id="SVGID_1_" gradientUnits="userSpaceOnUse" x1="23.9492" y1="169.9556" x2="117.101" y2="215.0128">
	<stop  offset="5.154996e-08" style="stop-color:#032769"/>
	<stop  offset="0.0267" style="stop-color:#032D70"/>
	<stop  offset="0.1658" style="stop-color:#024691"/>
	<stop  offset="0.299" style="stop-color:#0158A9"/>
	<stop  offset="0.4228" style="stop-color:#0063B7"/>
	<stop  offset="0.5279" style="stop-color:#0067BC"/>
</linearGradient>
<path style="fill:url(#SVGID_1_);" d="M114.372,202.205c-3.724-4.921-8.868-8.392-15.428-10.412v-0.946
	c5.173-1.513,9.589-4.856,13.251-10.032c3.659-5.173,5.491-11.738,5.491-19.688c0-11.358-3.882-19.813-11.643-25.368
	c-7.762-5.55-19.847-8.33-36.252-8.33h-4.314v26.504h3.746c9.59,0,14.388,4.102,14.388,12.304c0,4.293-1.136,7.638-3.408,10.032
	c-2.271,2.4-5.679,3.598-10.222,3.598h-8.33v25.555h9.276c5.046,0,8.77,1.359,11.168,4.07c2.397,2.717,3.598,6.28,3.598,10.697
	c0,4.921-1.136,8.709-3.408,11.358c-2.272,2.649-5.933,3.975-10.98,3.975H61.65v27.071h12.494c14.133,0,25.302-3.533,33.507-10.602
	c8.202-7.066,12.304-16.721,12.304-28.964C119.956,214.07,118.093,207.129,114.372,202.205z"/>
<polygon style="fill:#0067BC;" points="61.65,205.423 61.65,179.868 61.65,161.616 61.65,153.933 61.65,127.429 28.144,127.429 
	28.144,262.594 61.65,262.594 61.65,235.523 "/>
<g>
</g>
<g>
</g>
<g>
</g>
<g>
</g>
<g>
</g>
<g>
</g>
<g>
</g>
<g>
</g>
<g>
</g>
<g>
</g>
<g>
</g>
<g>
</g>
<g>
</g>
<g>
</g>
<g>
</g>
</svg>
